#N canvas 0 208 1600 849 10;
#X obj 165 317 osc~;
#X obj 163 365 *~;
#X obj 163 418 dac~;
#X floatatom 164 270 5 0 0 0 - - -, f 5;
#X obj 70 209 hsl 128 15 200 800 0 0 empty empty empty -2 -8 0 10 -262144
-1 -1 0 1;
#X obj 75 61 bng 15 250 50 0 empty empty empty 17 7 0 10 -262144 -1
-1;
#X floatatom 46 178 5 0 0 0 - - -, f 5;
#X obj 440 45 bng 15 250 50 0 empty empty empty 17 7 0 10 -262144 -1
-1;
#X obj 304 214 hsl 128 15 0 1 0 0 empty empty empty -2 -8 0 10 -262144
-1 -1 11000 1;
#X floatatom 395 138 5 0 0 0 - - -, f 5;
#X obj 424 88 random 2;
#X obj 48 135 + 200;
#X obj 67 104 random 601;
#X text 110 76 range 0 N-1;
#X obj 311 123 tgl 15 0 empty empty empty 17 7 0 10 -262144 -1 -1 0
1;
#X msg 311 146 0;
#X obj 272 122 tgl 15 0 empty empty empty 17 7 0 10 -262144 -1 -1 1
1;
#X text 242 144 max;
#X text 307 98 mute;
#X msg 272 145 1;
#X obj 268 302 * 0.5;
#X connect 0 0 1 0;
#X connect 1 0 2 0;
#X connect 1 0 2 1;
#X connect 3 0 0 0;
#X connect 4 0 3 0;
#X connect 5 0 12 0;
#X connect 6 0 4 0;
#X connect 7 0 10 0;
#X connect 8 0 20 0;
#X connect 9 0 8 0;
#X connect 10 0 9 0;
#X connect 11 0 6 0;
#X connect 12 0 11 0;
#X connect 14 0 15 0;
#X connect 15 0 8 0;
#X connect 16 0 19 0;
#X connect 19 0 8 0;
#X connect 20 0 1 1;
