#N canvas 0 208 1600 849 10;
#X obj 354 180 bng 15 250 50 0 empty empty empty 17 7 0 10 -262144
-1 -1;
#X obj 319 131 metro 2000;
#X obj 325 76 bng 15 250 50 0 empty empty empty 17 7 0 10 -262144 -1
-1;
#X text 409 123 metro: triggers output signal (send BANG) with a predetermined
time interval;
#X msg 375 77 500;
#X obj 309 194 bng 15 250 50 0 empty empty empty 17 7 0 10 -262144
-1 -1;
#X floatatom 330 267 5 0 0 0 - - -, f 5;
#X text 402 251 random <number> : when activated \, send a number inside
the range (0 - (number-1);
#X obj 309 239 random 20, f 12;
#X msg 395 188 100;
#X msg 435 189 20;
#X msg 415 77 2000;
#X msg 490 433 1000;
#X floatatom 570 395 5 0 0 0 - - -, f 5;
#X obj 496 391 bng 15 250 50 0 empty empty empty 17 7 0 10 -262144
-1 -1;
#X obj 491 473 /;
#X obj 580 439 / 60;
#X floatatom 489 503 5 0 0 0 - - -, f 5;
#X text 308 432 1000 milliseconds / second;
#X obj 456 544 metro;
#X text 620 437 ([INPUT] bits per minute) / (60 seconds per minute)
;
#X text 610 461 Result: bits per second;
#X text 542 501 Result: milliseconds per bit;
#X obj 457 578 bng 15 250 50 0 empty empty empty 17 7 0 10 -262144
-1 -1;
#X obj 448 500 tgl 15 0 empty empty empty 17 7 0 10 -262144 -1 -1 1
1;
#X obj 582 346 bng 15 250 50 0 empty empty empty 17 7 0 10 -262144
-1 -1;
#X text 377 342 EXAMPLE: DIGITAL METRONOME;
#X text 608 343 bang to insert random input;
#X obj 564 370 random 1000;
#X text 518 542 metro sends signal each [right input] ms.;
#X text 611 395 INPUT (bpm);
#X connect 1 0 0 0;
#X connect 2 0 1 0;
#X connect 4 0 1 1;
#X connect 5 0 8 0;
#X connect 8 0 6 0;
#X connect 9 0 8 1;
#X connect 10 0 8 1;
#X connect 11 0 1 1;
#X connect 12 0 15 0;
#X connect 13 0 16 0;
#X connect 14 0 12 0;
#X connect 15 0 17 0;
#X connect 16 0 14 0;
#X connect 16 0 15 1;
#X connect 17 0 19 1;
#X connect 19 0 23 0;
#X connect 24 0 19 0;
#X connect 25 0 28 0;
#X connect 28 0 13 0;
