#N canvas 1667 55 1853 1002 10;
#X obj 221 580 metro 50;
#X obj 221 549 tgl 15 0 empty empty empty 17 7 0 10 -262144 -1 -1 1
1;
#N canvas 0 0 450 300 (subpatch) 0;
#X array additive_synthesis 100 float 1 black black;
#A 0 0 0 0 0 0 0 0 0 0 0 0 0 0 0 0 0 0 0 0 0 0 0 0 0 0 0 0 0 0 0 0
0 0 0 0 0 0 0 0 0 0 0 0 0 0 0 0 0 0 0 0 0 0 0 0 0 0 0 0 0 0 0 0 0 0
0 0 0 0 0 0 0 0 0 0 0 0 0 0 0 0 0 0 0 0 0 0 0 0 0 0 0 0 0 0 0 0 0 0
0;
#X coords 0 1 99 -1 200 140 1;
#X restore 496 435 graph;
#X obj 69 26 hsl 128 15 0 1000 0 0 empty empty empty -2 -8 0 10 -262144
-1 -1 6150 1;
#X floatatom 69 65 5 0 0 0 - - -, f 5;
#X obj 452 140 phasor~;
#X obj 570 165 phasor~;
#X obj 628 165 phasor~;
#X obj 684 165 phasor~;
#X obj 740 165 phasor~;
#X obj 796 165 phasor~;
#X obj 62 578 dac~;
#X obj 221 615 tabwrite~ additive_synthesis;
#X obj 39 346 vradio 15 0 0 3 empty empty empty 0 -8 0 10 -262144 -1
-1 2;
#X obj 71 537 *~;
#X obj 222 497 hsl 128 15 0 1 0 0 empty empty empty -2 -8 0 10 -262144
-1 -1 0 1;
#X msg 241 455 0;
#X msg 277 456 0.5;
#X obj 70 172 osc~;
#X obj 162 168 osc~;
#X obj 213 166 osc~;
#X obj 259 166 osc~;
#X obj 304 166 osc~;
#X obj 353 166 osc~;
#X obj 570 190 -~ 0.5;
#X obj 570 217 *~ 2;
#X obj 162 135 * 2;
#X obj 213 133 * 3;
#X obj 259 133 * 4;
#X obj 304 133 * 5;
#X obj 353 133 * 6;
#X obj 162 196 *~;
#X obj 160 252 hsl 33 14 0 1 0 0 empty empty empty -2 -8 0 10 -262144
-1 -1 0 1;
#X obj 70 254 *~;
#X msg 160 279 \$1 20;
#X obj 160 306 line~;
#X obj 213 195 *~;
#X obj 211 251 hsl 33 14 0 1 0 0 empty empty empty -2 -8 0 10 -262144
-1 -1 3200 1;
#X msg 211 278 \$1 20;
#X obj 211 305 line~;
#X obj 259 195 *~;
#X obj 258 251 hsl 33 14 0 1 0 0 empty empty empty -2 -8 0 10 -262144
-1 -1 0 1;
#X msg 258 278 \$1 20;
#X obj 258 305 line~;
#X obj 304 195 *~;
#X obj 302 251 hsl 33 14 0 1 0 0 empty empty empty -2 -8 0 10 -262144
-1 -1 0 1;
#X msg 302 278 \$1 20;
#X obj 302 305 line~;
#X obj 353 194 *~;
#X obj 351 250 hsl 33 14 0 1 0 0 empty empty empty -2 -8 0 10 -262144
-1 -1 0 1;
#X msg 351 277 \$1 20;
#X obj 351 304 line~;
#X obj 106 254 hsl 33 14 0 1 0 0 empty empty empty -2 -8 0 10 -262144
-1 -1 3200 1;
#X msg 106 281 \$1 20;
#X obj 106 308 line~;
#X obj 570 137 * 2;
#X obj 628 136 * 3;
#X obj 684 136 * 4;
#X obj 740 136 * 5;
#X obj 796 136 * 6;
#X obj 571 312 hsl 33 14 0 1 0 0 empty empty empty -2 -8 0 10 -262144
-1 -1 0 1;
#X msg 571 339 \$1 20;
#X obj 571 366 line~;
#X obj 629 312 hsl 33 14 0 1 0 0 empty empty empty -2 -8 0 10 -262144
-1 -1 0 1;
#X msg 629 339 \$1 20;
#X obj 629 366 line~;
#X obj 685 312 hsl 33 14 0 1 0 0 empty empty empty -2 -8 0 10 -262144
-1 -1 0 1;
#X msg 685 339 \$1 20;
#X obj 685 366 line~;
#X obj 742 312 hsl 33 14 0 1 0 0 empty empty empty -2 -8 0 10 -262144
-1 -1 0 1;
#X msg 742 339 \$1 20;
#X obj 742 366 line~;
#X obj 791 311 hsl 33 14 0 1 0 0 empty empty empty -2 -8 0 10 -262144
-1 -1 0 1;
#X msg 791 338 \$1 20;
#X obj 791 365 line~;
#X obj 507 315 hsl 33 14 0 1 0 0 empty empty empty -2 -8 0 10 -262144
-1 -1 0 1;
#X msg 507 342 \$1 20;
#X obj 507 369 line~;
#X obj 628 190 -~ 0.5;
#X obj 628 217 *~ 2;
#X obj 684 190 -~ 0.5;
#X obj 684 217 *~ 2;
#X obj 740 189 -~ 0.5;
#X obj 740 216 *~ 2;
#X obj 796 189 -~ 0.5;
#X obj 796 219 *~ 2;
#X obj 452 165 -~ 0.5;
#X obj 452 192 *~ 2;
#X obj 450 329 *~;
#X obj 570 245 *~;
#X obj 628 245 *~;
#X obj 684 244 *~;
#X obj 740 244 *~;
#X obj 796 243 *~;
#X obj 71 439 mux~ 1 2 3;
#X obj 70 205 *~;
#X obj 498 208 hsl 33 14 0 1 0 0 empty empty empty -2 -8 0 10 -262144
-1 -1 3200 1;
#X msg 498 235 \$1 20;
#X obj 498 262 line~;
#X obj 112 140 hsl 33 14 0 1 0 0 empty empty empty -2 -8 0 10 -262144
-1 -1 3200 1;
#X msg 112 167 \$1 20;
#X obj 112 194 line~;
#X obj 450 244 *~;
#X obj 128 396 *~;
#X obj 170 400 hsl 33 14 0 1 0 0 empty empty empty -2 -8 0 10 -262144
-1 -1 1150 1;
#X msg 170 427 \$1 20;
#X obj 170 454 line~;
#X connect 0 0 12 0;
#X connect 1 0 0 0;
#X connect 3 0 4 0;
#X connect 4 0 26 0;
#X connect 4 0 27 0;
#X connect 4 0 28 0;
#X connect 4 0 29 0;
#X connect 4 0 30 0;
#X connect 4 0 18 0;
#X connect 4 0 5 0;
#X connect 4 0 55 0;
#X connect 4 0 56 0;
#X connect 4 0 57 0;
#X connect 4 0 58 0;
#X connect 4 0 59 0;
#X connect 5 0 86 0;
#X connect 6 0 24 0;
#X connect 7 0 78 0;
#X connect 8 0 80 0;
#X connect 9 0 82 0;
#X connect 10 0 84 0;
#X connect 13 0 94 0;
#X connect 14 0 11 0;
#X connect 14 0 11 1;
#X connect 14 0 12 0;
#X connect 15 0 14 1;
#X connect 16 0 15 0;
#X connect 17 0 15 0;
#X connect 18 0 95 0;
#X connect 19 0 31 0;
#X connect 20 0 36 0;
#X connect 21 0 40 0;
#X connect 22 0 44 0;
#X connect 23 0 48 0;
#X connect 24 0 25 0;
#X connect 25 0 89 0;
#X connect 26 0 19 0;
#X connect 27 0 20 0;
#X connect 28 0 21 0;
#X connect 29 0 22 0;
#X connect 30 0 23 0;
#X connect 31 0 33 0;
#X connect 32 0 34 0;
#X connect 33 0 94 0;
#X connect 33 0 103 0;
#X connect 34 0 35 0;
#X connect 35 0 31 1;
#X connect 36 0 33 0;
#X connect 37 0 38 0;
#X connect 38 0 39 0;
#X connect 39 0 36 1;
#X connect 40 0 33 0;
#X connect 41 0 42 0;
#X connect 42 0 43 0;
#X connect 43 0 40 1;
#X connect 44 0 33 0;
#X connect 45 0 46 0;
#X connect 46 0 47 0;
#X connect 47 0 44 1;
#X connect 48 0 33 0;
#X connect 49 0 50 0;
#X connect 50 0 51 0;
#X connect 51 0 48 1;
#X connect 52 0 53 0;
#X connect 53 0 54 0;
#X connect 54 0 33 1;
#X connect 55 0 6 0;
#X connect 56 0 7 0;
#X connect 57 0 8 0;
#X connect 58 0 9 0;
#X connect 59 0 10 0;
#X connect 60 0 61 0;
#X connect 61 0 62 0;
#X connect 62 0 89 1;
#X connect 63 0 64 0;
#X connect 64 0 65 0;
#X connect 65 0 90 1;
#X connect 66 0 67 0;
#X connect 67 0 68 0;
#X connect 68 0 91 1;
#X connect 69 0 70 0;
#X connect 70 0 71 0;
#X connect 71 0 92 1;
#X connect 72 0 73 0;
#X connect 73 0 74 0;
#X connect 74 0 93 1;
#X connect 75 0 76 0;
#X connect 76 0 77 0;
#X connect 77 0 88 1;
#X connect 78 0 79 0;
#X connect 79 0 90 0;
#X connect 80 0 81 0;
#X connect 81 0 91 0;
#X connect 82 0 83 0;
#X connect 83 0 92 0;
#X connect 84 0 85 0;
#X connect 85 0 93 0;
#X connect 86 0 87 0;
#X connect 87 0 102 0;
#X connect 88 0 94 1;
#X connect 88 0 103 0;
#X connect 89 0 88 0;
#X connect 90 0 88 0;
#X connect 91 0 88 0;
#X connect 92 0 88 0;
#X connect 93 0 88 0;
#X connect 94 0 14 0;
#X connect 95 0 33 0;
#X connect 96 0 97 0;
#X connect 97 0 98 0;
#X connect 98 0 102 1;
#X connect 99 0 100 0;
#X connect 100 0 101 0;
#X connect 101 0 95 1;
#X connect 102 0 88 0;
#X connect 103 0 94 2;
#X connect 104 0 105 0;
#X connect 105 0 106 0;
#X connect 106 0 103 1;
