#N canvas 0 208 1600 849 10;
#X obj 88 140 osc~;
#X obj 114 193 *~;
#X obj 204 78 hsl 128 15 0 0.5 0 0 empty empty empty -2 -8 0 10 -262144
-1 -1 0 1;
#X obj 114 247 dac~;
#X obj 162 157 line~;
#X msg 196 114 \$1 20;
#X obj 192 243 tabwrite~ osciloscopio;
#N canvas 0 0 450 300 (subpatch) 0;
#X array osciloscopio 100 float 1 black black;
#A 0 0 0 0 0 0 0 0 0 0 0 0 0 0 0 0 0 0 0 0 0 0 0 0 0 0 0 0 0 0 0 0
0 0 0 0 0 0 0 0 0 0 0 0 0 0 0 0 0 0 0 0 0 0 0 0 0 0 0 0 0 0 0 0 0 0
0 0 0 0 0 0 0 0 0 0 0 0 0 0 0 0 0 0 0 0 0 0 0 0 0 0 0 0 0 0 0 0 0 0
0;
#X coords 0 1 99 -1 200 140 1;
#X restore 435 61 graph;
#X obj 217 199 metro 50;
#X obj 223 158 tgl 15 0 empty empty empty 17 7 0 10 -262144 -1 -1 1
1;
#X msg 105 82 440;
#X floatatom 59 68 5 0 0 0 - - -, f 5;
#X obj 14 30 hsl 128 15 200 1300 0 0 empty empty empty -2 -8 0 10 -262144
-1 -1 4450 1;
#X text 25 7 frequency control;
#X text 216 57 Amplitude control;
#X msg 168 50 0;
#X obj 167 18 bng 18 250 50 0 empty empty empty 17 7 0 10 -262144 -1
-1;
#X text 196 12 mute;
#X text 280 163 use to take "snapshots" from the audio signal each
50ms, f 13;
#X connect 0 0 1 0;
#X connect 1 0 3 0;
#X connect 1 0 3 1;
#X connect 1 0 6 0;
#X connect 2 0 5 0;
#X connect 4 0 1 1;
#X connect 5 0 4 0;
#X connect 8 0 6 0;
#X connect 9 0 8 0;
#X connect 10 0 0 0;
#X connect 11 0 0 0;
#X connect 12 0 11 0;
#X connect 15 0 2 0;
#X connect 16 0 15 0;
