#N canvas 2258 211 648 437 10;
#X obj 164 143 *~, f 5;
#X obj 164 101 osc~;
#X obj 288 63 bng 15 250 50 0 empty empty empty 17 7 0 10 -262144 -1
-1;
#X msg 258 90 0;
#X text 309 61 mute;
#X obj 197 39 hsl 128 15 0 0.75 0 0 empty empty empty -2 -8 0 10 -262144
-1 -1 12050 1;
#X msg 213 87 \$1;
#X text 254 194 use of clip: it will limit the range of the signal
inside of the specified boundaries., f 19;
#X obj 173 181 demux~ 0 1;
#X text 20 92 select between clipped and unclipped signal, f 17;
#X obj 123 216 clip~ -0.5 0.5;
#X msg 164 70 220;
#N canvas 0 0 450 300 (subpatch) 0;
#X array mux 100 float 1 black black;
#A 0 0 0 0 0 0 0 0 0 0 0 0 0 0 0 0 0 0 0 0 0 0 0 0 0 0 0 0 0 0 0 0
0 0 0 0 0 0 0 0 0 0 0 0 0 0 0 0 0 0 0 0 0 0 0 0 0 0 0 0 0 0 0 0 0 0
0 0 0 0 0 0 0 0 0 0 0 0 0 0 0 0 0 0 0 0 0 0 0 0 0 0 0 0 0 0 0 0 0 0
0;
#X coords 0 0.5 99 -0.5 200 140 1;
#X restore 387 35 graph;
#X text 370 95 0;
#X text 351 35 +0.5;
#X text 351 156 -0.5;
#X obj 43 282 tgl 15 0 empty empty empty 17 7 0 10 -262144 -1 -1 1
1;
#X obj 43 315 metro 50;
#X obj 43 358 tabwrite~ mux;
#X obj 155 306 mux~ 0 1;
#X obj 174 363 dac~;
#X obj 44 147 hradio 15 0 0 2 empty empty empty 0 -8 0 10 -262144 -1
-1 1;
#X text 83 146 unclip;
#X text 7 146 clip;
#X text 234 293 using mux and demux will aid to avoid repeating structures.
, f 20;
#X connect 0 0 8 0;
#X connect 1 0 0 0;
#X connect 2 0 3 0;
#X connect 3 0 0 1;
#X connect 5 0 6 0;
#X connect 6 0 0 1;
#X connect 8 0 10 0;
#X connect 8 1 19 1;
#X connect 10 0 19 0;
#X connect 11 0 1 0;
#X connect 16 0 17 0;
#X connect 17 0 18 0;
#X connect 19 0 18 0;
#X connect 19 0 20 0;
#X connect 19 0 20 1;
#X connect 21 0 8 0;
#X connect 21 0 19 0;
